<svg width="100" height="33" viewBox="0 0 100 33" fill="none" xmlns="http://www.w3.org/2000/svg">
<rect x="0.5" y="0.669922" width="99" height="31" rx="15.5" stroke="black" stroke-opacity="0.2"/>
<path d="M34.12 20.1699L37.888 11.7099H38.956L42.784 20.1699H41.5L40.456 17.7699L40.984 18.1059H35.86L36.424 17.7699L35.38 20.1699H34.12ZM38.404 13.0779L36.58 17.3859L36.292 17.1099H40.552L40.312 17.3859L38.452 13.0779H38.404ZM46.0517 20.2779C45.5237 20.2779 45.0557 20.1539 44.6477 19.9059C44.2477 19.6579 43.9357 19.2979 43.7117 18.8259C43.4957 18.3539 43.3877 17.7939 43.3877 17.1459C43.3877 16.4899 43.4957 15.9299 43.7117 15.4659C43.9357 15.0019 44.2477 14.6459 44.6477 14.3979C45.0557 14.1419 45.5237 14.0139 46.0517 14.0139C46.5717 14.0139 47.0277 14.1459 47.4197 14.4099C47.8197 14.6659 48.0837 15.0179 48.2117 15.4659H48.0677V11.3379H49.2797V20.1699H48.0797V18.8019H48.2237C48.0877 19.2579 47.8237 19.6179 47.4317 19.8819C47.0397 20.1459 46.5797 20.2779 46.0517 20.2779ZM46.3517 19.3299C46.8717 19.3299 47.2917 19.1459 47.6117 18.7779C47.9317 18.4099 48.0917 17.8659 48.0917 17.1459C48.0917 16.4259 47.9317 15.8859 47.6117 15.5259C47.2917 15.1579 46.8717 14.9739 46.3517 14.9739C45.8237 14.9739 45.3997 15.1579 45.0797 15.5259C44.7677 15.8859 44.6117 16.4259 44.6117 17.1459C44.6117 17.8659 44.7677 18.4099 45.0797 18.7779C45.3997 19.1459 45.8237 19.3299 46.3517 19.3299ZM53.3642 20.2779C52.8362 20.2779 52.3682 20.1539 51.9602 19.9059C51.5602 19.6579 51.2482 19.2979 51.0242 18.8259C50.8082 18.3539 50.7002 17.7939 50.7002 17.1459C50.7002 16.4899 50.8082 15.9299 51.0242 15.4659C51.2482 15.0019 51.5602 14.6459 51.9602 14.3979C52.3682 14.1419 52.8362 14.0139 53.3642 14.0139C53.8842 14.0139 54.3402 14.1459 54.7322 14.4099C55.1322 14.6659 55.3962 15.0179 55.5242 15.4659H55.3802V11.3379H56.5922V20.1699H55.3922V18.8019H55.5362C55.4002 19.2579 55.1362 19.6179 54.7442 19.8819C54.3522 20.1459 53.8922 20.2779 53.3642 20.2779ZM53.6642 19.3299C54.1842 19.3299 54.6042 19.1459 54.9242 18.7779C55.2442 18.4099 55.4042 17.8659 55.4042 17.1459C55.4042 16.4259 55.2442 15.8859 54.9242 15.5259C54.6042 15.1579 54.1842 14.9739 53.6642 14.9739C53.1362 14.9739 52.7122 15.1579 52.3922 15.5259C52.0802 15.8859 51.9242 16.4259 51.9242 17.1459C51.9242 17.8659 52.0802 18.4099 52.3922 18.7779C52.7122 19.1459 53.1362 19.3299 53.6642 19.3299ZM63.8759 20.2779C63.3479 20.2779 62.8799 20.1539 62.4719 19.9059C62.0719 19.6579 61.7599 19.2979 61.5359 18.8259C61.3199 18.3539 61.2119 17.7939 61.2119 17.1459C61.2119 16.4899 61.3199 15.9299 61.5359 15.4659C61.7599 15.0019 62.0719 14.6459 62.4719 14.3979C62.8799 14.1419 63.3479 14.0139 63.8759 14.0139C64.3959 14.0139 64.8519 14.1459 65.2439 14.4099C65.6439 14.6659 65.9079 15.0179 66.0359 15.4659H65.8919V11.3379H67.1039V20.1699H65.9039V18.8019H66.0479C65.9119 19.2579 65.6479 19.6179 65.2559 19.8819C64.8639 20.1459 64.4039 20.2779 63.8759 20.2779ZM64.1759 19.3299C64.6959 19.3299 65.1159 19.1459 65.4359 18.7779C65.7559 18.4099 65.9159 17.8659 65.9159 17.1459C65.9159 16.4259 65.7559 15.8859 65.4359 15.5259C65.1159 15.1579 64.6959 14.9739 64.1759 14.9739C63.6479 14.9739 63.2239 15.1579 62.9039 15.5259C62.5919 15.8859 62.4359 16.4259 62.4359 17.1459C62.4359 17.8659 62.5919 18.4099 62.9039 18.7779C63.2239 19.1459 63.6479 19.3299 64.1759 19.3299ZM71.1884 20.2779C70.6524 20.2779 70.1844 20.1539 69.7844 19.9059C69.3844 19.6579 69.0724 19.2979 68.8484 18.8259C68.6324 18.3539 68.5244 17.7939 68.5244 17.1459C68.5244 16.4899 68.6324 15.9299 68.8484 15.4659C69.0724 15.0019 69.3844 14.6459 69.7844 14.3979C70.1844 14.1419 70.6524 14.0139 71.1884 14.0139C71.7164 14.0139 72.1764 14.1459 72.5684 14.4099C72.9604 14.6739 73.2204 15.0339 73.3484 15.4899H73.2164L73.3364 14.1219H74.5124C74.4884 14.3699 74.4644 14.6179 74.4404 14.8659C74.4244 15.1059 74.4164 15.3419 74.4164 15.5739V20.1699H73.2044V18.8259H73.3364C73.2084 19.2739 72.9444 19.6299 72.5444 19.8939C72.1524 20.1499 71.7004 20.2779 71.1884 20.2779ZM71.4884 19.3299C72.0084 19.3299 72.4244 19.1459 72.7364 18.7779C73.0564 18.4099 73.2164 17.8659 73.2164 17.1459C73.2164 16.4259 73.0564 15.8859 72.7364 15.5259C72.4244 15.1579 72.0084 14.9739 71.4884 14.9739C70.9604 14.9739 70.5364 15.1579 70.2164 15.5259C69.9044 15.8859 69.7484 16.4259 69.7484 17.1459C69.7484 17.8659 69.9044 18.4099 70.2164 18.7779C70.5284 19.1459 70.9524 19.3299 71.4884 19.3299ZM78.5369 20.2779C77.8809 20.2779 77.3849 20.1019 77.0489 19.7499C76.7129 19.3899 76.5449 18.8539 76.5449 18.1419V15.0579H75.3689V14.1219H76.5449V12.5259L77.7569 12.2019V14.1219H79.4369V15.0579H77.7569V18.0339C77.7569 18.4819 77.8369 18.8019 77.9969 18.9939C78.1569 19.1859 78.3889 19.2819 78.6929 19.2819C78.8449 19.2819 78.9769 19.2699 79.0889 19.2459C79.2089 19.2139 79.3169 19.1779 79.4129 19.1379V20.1219C79.2929 20.1699 79.1529 20.2059 78.9929 20.2299C78.8329 20.2619 78.6809 20.2779 78.5369 20.2779ZM83.2817 20.2779C82.3057 20.2779 81.5377 20.0019 80.9777 19.4499C80.4177 18.8979 80.1377 18.1339 80.1377 17.1579C80.1377 16.5259 80.2577 15.9739 80.4977 15.5019C80.7457 15.0299 81.0857 14.6659 81.5177 14.4099C81.9577 14.1459 82.4657 14.0139 83.0417 14.0139C83.6097 14.0139 84.0857 14.1339 84.4697 14.3739C84.8537 14.6139 85.1457 14.9539 85.3457 15.3939C85.5457 15.8259 85.6457 16.3379 85.6457 16.9299V17.3139H81.0857V16.6179H84.8177L84.6137 16.7739C84.6137 16.1739 84.4777 15.7099 84.2057 15.3819C83.9417 15.0459 83.5577 14.8779 83.0537 14.8779C82.4937 14.8779 82.0617 15.0739 81.7577 15.4659C81.4537 15.8499 81.3017 16.3819 81.3017 17.0619V17.1819C81.3017 17.8939 81.4737 18.4299 81.8177 18.7899C82.1697 19.1499 82.6657 19.3299 83.3057 19.3299C83.6577 19.3299 83.9857 19.2819 84.2897 19.1859C84.6017 19.0819 84.8977 18.9139 85.1777 18.6819L85.5737 19.5099C85.2937 19.7579 84.9537 19.9499 84.5537 20.0859C84.1537 20.2139 83.7297 20.2779 83.2817 20.2779Z" fill="black" fill-opacity="0.6"/>
<path fill-rule="evenodd" clip-rule="evenodd" d="M16.25 19.1699C16.25 18.7574 16.5875 18.4199 17 18.4199C17.4125 18.4199 17.75 18.7574 17.75 19.1699C17.75 19.5824 17.4125 19.9199 17 19.9199C16.5875 19.9199 16.25 19.5824 16.25 19.1699ZM20 18.4199H23C23.4125 18.4199 23.75 18.7574 23.75 19.1699C23.75 19.5824 23.4125 19.9199 23 19.9199H20C19.5875 19.9199 19.25 19.5824 19.25 19.1699C19.25 18.7574 19.5875 18.4199 20 18.4199ZM24.5 22.1699H15.5C15.0868 22.1699 14.75 21.8332 14.75 21.4199V16.9199H25.25V21.4199C25.25 21.8332 24.9132 22.1699 24.5 22.1699ZM15.5 11.6699H16.25V12.4199C16.25 12.8324 16.5875 13.1699 17 13.1699C17.4125 13.1699 17.75 12.8324 17.75 12.4199V11.6699H22.25V12.4199C22.25 12.8324 22.5875 13.1699 23 13.1699C23.4125 13.1699 23.75 12.8324 23.75 12.4199V11.6699H24.5C24.9132 11.6699 25.25 12.0067 25.25 12.4199V15.4199H14.75V12.4199C14.75 12.0067 15.0868 11.6699 15.5 11.6699ZM24.5 10.1699H23.75V9.41992C23.75 9.00742 23.4125 8.66992 23 8.66992C22.5875 8.66992 22.25 9.00742 22.25 9.41992V10.1699H17.75V9.41992C17.75 9.00742 17.4125 8.66992 17 8.66992C16.5875 8.66992 16.25 9.00742 16.25 9.41992V10.1699H15.5C14.2595 10.1699 13.25 11.1794 13.25 12.4199V21.4199C13.25 22.6604 14.2595 23.6699 15.5 23.6699H24.5C25.7405 23.6699 26.75 22.6604 26.75 21.4199V12.4199C26.75 11.1794 25.7405 10.1699 24.5 10.1699Z" fill="black" fill-opacity="0.4"/>
<mask id="mask0_68_1888" style="mask-type:luminance" maskUnits="userSpaceOnUse" x="13" y="8" width="14" height="16">
<path fill-rule="evenodd" clip-rule="evenodd" d="M16.25 19.1699C16.25 18.7574 16.5875 18.4199 17 18.4199C17.4125 18.4199 17.75 18.7574 17.75 19.1699C17.75 19.5824 17.4125 19.9199 17 19.9199C16.5875 19.9199 16.25 19.5824 16.25 19.1699ZM20 18.4199H23C23.4125 18.4199 23.75 18.7574 23.75 19.1699C23.75 19.5824 23.4125 19.9199 23 19.9199H20C19.5875 19.9199 19.25 19.5824 19.25 19.1699C19.25 18.7574 19.5875 18.4199 20 18.4199ZM24.5 22.1699H15.5C15.0868 22.1699 14.75 21.8332 14.75 21.4199V16.9199H25.25V21.4199C25.25 21.8332 24.9132 22.1699 24.5 22.1699ZM15.5 11.6699H16.25V12.4199C16.25 12.8324 16.5875 13.1699 17 13.1699C17.4125 13.1699 17.75 12.8324 17.75 12.4199V11.6699H22.25V12.4199C22.25 12.8324 22.5875 13.1699 23 13.1699C23.4125 13.1699 23.75 12.8324 23.75 12.4199V11.6699H24.5C24.9132 11.6699 25.25 12.0067 25.25 12.4199V15.4199H14.75V12.4199C14.75 12.0067 15.0868 11.6699 15.5 11.6699ZM24.5 10.1699H23.75V9.41992C23.75 9.00742 23.4125 8.66992 23 8.66992C22.5875 8.66992 22.25 9.00742 22.25 9.41992V10.1699H17.75V9.41992C17.75 9.00742 17.4125 8.66992 17 8.66992C16.5875 8.66992 16.25 9.00742 16.25 9.41992V10.1699H15.5C14.2595 10.1699 13.25 11.1794 13.25 12.4199V21.4199C13.25 22.6604 14.2595 23.6699 15.5 23.6699H24.5C25.7405 23.6699 26.75 22.6604 26.75 21.4199V12.4199C26.75 11.1794 25.7405 10.1699 24.5 10.1699Z" fill="white"/>
</mask>
<g mask="url(#mask0_68_1888)">
<rect x="11" y="7.16992" width="18" height="18" fill="black" fill-opacity="0.4"/>
</g>
</svg>
