<svg width="160" height="30" viewBox="0 0 160 30" fill="none" xmlns="http://www.w3.org/2000/svg">
<path d="M41.048 24V9.168H35.264V7.08H49.328V9.168H43.544V24H41.048ZM54.2283 24.216C53.1563 24.216 52.2203 23.968 51.4203 23.472C50.6203 22.976 49.9963 22.256 49.5483 21.312C49.1163 20.368 48.9003 19.248 48.9003 17.952C48.9003 16.64 49.1163 15.52 49.5483 14.592C49.9963 13.664 50.6203 12.952 51.4203 12.456C52.2203 11.944 53.1563 11.688 54.2283 11.688C55.2843 11.688 56.2043 11.952 56.9883 12.48C57.7723 13.008 58.2923 13.728 58.5483 14.64H58.2843L58.5243 11.904H60.8763C60.8283 12.4 60.7803 12.896 60.7323 13.392C60.7003 13.872 60.6843 14.344 60.6843 14.808V24H58.2603V21.312H58.5243C58.2683 22.208 57.7403 22.92 56.9403 23.448C56.1563 23.96 55.2523 24.216 54.2283 24.216ZM54.8283 22.32C55.8683 22.32 56.7003 21.952 57.3243 21.216C57.9643 20.48 58.2843 19.392 58.2843 17.952C58.2843 16.512 57.9643 15.432 57.3243 14.712C56.7003 13.976 55.8683 13.608 54.8283 13.608C53.7723 13.608 52.9243 13.976 52.2843 14.712C51.6603 15.432 51.3483 16.512 51.3483 17.952C51.3483 19.392 51.6603 20.48 52.2843 21.216C52.9083 21.952 53.7563 22.32 54.8283 22.32ZM68.3733 24.216C67.3653 24.216 66.4373 24.088 65.5893 23.832C64.7413 23.576 64.0373 23.216 63.4773 22.752L64.2213 21.096C64.8133 21.544 65.4693 21.88 66.1893 22.104C66.9093 22.328 67.6453 22.44 68.3973 22.44C69.2773 22.44 69.9413 22.288 70.3893 21.984C70.8373 21.664 71.0613 21.232 71.0613 20.688C71.0613 20.272 70.9173 19.936 70.6293 19.68C70.3573 19.424 69.9013 19.232 69.2613 19.104L66.9573 18.648C65.9333 18.424 65.1573 18.04 64.6293 17.496C64.1013 16.952 63.8373 16.256 63.8373 15.408C63.8373 14.688 64.0293 14.048 64.4133 13.488C64.8133 12.928 65.3733 12.488 66.0933 12.168C66.8293 11.848 67.6853 11.688 68.6613 11.688C69.5573 11.688 70.3893 11.816 71.1573 12.072C71.9253 12.328 72.5653 12.696 73.0773 13.176L72.3093 14.784C71.8133 14.368 71.2533 14.048 70.6293 13.824C70.0053 13.584 69.3733 13.464 68.7333 13.464C67.8373 13.464 67.1733 13.632 66.7413 13.968C66.3093 14.304 66.0933 14.744 66.0933 15.288C66.0933 15.704 66.2213 16.048 66.4773 16.32C66.7493 16.576 67.1733 16.776 67.7493 16.92L70.0533 17.376C71.1413 17.6 71.9573 17.968 72.5013 18.48C73.0453 18.992 73.3173 19.68 73.3173 20.544C73.3173 21.296 73.1093 21.952 72.6933 22.512C72.2773 23.072 71.7013 23.496 70.9653 23.784C70.2293 24.072 69.3653 24.216 68.3733 24.216ZM76.1744 24V6.336H78.5984V17.184H78.6464L83.9264 11.904H86.9264L80.5424 18.264L80.5664 17.184L87.4544 24H84.3824L78.6464 18.456H78.5984V24H76.1744ZM89.1639 24V7.08H96.2199C98.0439 7.08 99.4439 7.464 100.42 8.232C101.412 9 101.908 10.08 101.908 11.472C101.908 12.512 101.596 13.384 100.972 14.088C100.348 14.792 99.4919 15.264 98.4039 15.504V15.144C99.6519 15.304 100.62 15.744 101.308 16.464C101.996 17.184 102.34 18.136 102.34 19.32C102.34 20.824 101.828 21.984 100.804 22.8C99.7959 23.6 98.3719 24 96.5319 24H89.1639ZM91.5879 22.056H96.2679C97.4039 22.056 98.2919 21.84 98.9319 21.408C99.5879 20.976 99.9159 20.248 99.9159 19.224C99.9159 18.2 99.5879 17.472 98.9319 17.04C98.2919 16.608 97.4039 16.392 96.2679 16.392H91.5879V22.056ZM91.5879 14.472H95.8359C97.0519 14.472 97.9639 14.24 98.5719 13.776C99.1799 13.312 99.4839 12.632 99.4839 11.736C99.4839 10.84 99.1799 10.16 98.5719 9.696C97.9639 9.232 97.0519 9 95.8359 9H91.5879V14.472ZM109.674 24.216C108.218 24.216 107.122 23.824 106.386 23.04C105.666 22.24 105.306 21.016 105.306 19.368V11.904H107.73V19.32C107.73 20.328 107.938 21.072 108.354 21.552C108.77 22.032 109.402 22.272 110.25 22.272C111.21 22.272 111.986 21.952 112.578 21.312C113.17 20.672 113.466 19.824 113.466 18.768V11.904H115.89V24H113.538V21.408H113.85C113.514 22.304 112.978 23 112.242 23.496C111.506 23.976 110.65 24.216 109.674 24.216ZM124.072 24.216C123.016 24.216 122.08 23.968 121.264 23.472C120.464 22.976 119.84 22.256 119.392 21.312C118.96 20.368 118.744 19.248 118.744 17.952C118.744 16.64 118.96 15.52 119.392 14.592C119.84 13.664 120.464 12.952 121.264 12.456C122.08 11.944 123.016 11.688 124.072 11.688C125.112 11.688 126.024 11.952 126.808 12.48C127.608 12.992 128.136 13.696 128.392 14.592H128.104V6.336H130.528V24H128.128V21.264H128.416C128.144 22.176 127.616 22.896 126.832 23.424C126.048 23.952 125.128 24.216 124.072 24.216ZM124.672 22.32C125.712 22.32 126.552 21.952 127.192 21.216C127.832 20.48 128.152 19.392 128.152 17.952C128.152 16.512 127.832 15.432 127.192 14.712C126.552 13.976 125.712 13.608 124.672 13.608C123.616 13.608 122.768 13.976 122.128 14.712C121.504 15.432 121.192 16.512 121.192 17.952C121.192 19.392 121.504 20.48 122.128 21.216C122.768 21.952 123.616 22.32 124.672 22.32ZM138.697 24.216C137.641 24.216 136.705 23.968 135.889 23.472C135.089 22.976 134.465 22.256 134.017 21.312C133.585 20.368 133.369 19.248 133.369 17.952C133.369 16.64 133.585 15.52 134.017 14.592C134.465 13.664 135.089 12.952 135.889 12.456C136.705 11.944 137.641 11.688 138.697 11.688C139.737 11.688 140.649 11.952 141.433 12.48C142.233 12.992 142.761 13.696 143.017 14.592H142.729V6.336H145.153V24H142.753V21.264H143.041C142.769 22.176 142.241 22.896 141.457 23.424C140.673 23.952 139.753 24.216 138.697 24.216ZM139.297 22.32C140.337 22.32 141.177 21.952 141.817 21.216C142.457 20.48 142.777 19.392 142.777 17.952C142.777 16.512 142.457 15.432 141.817 14.712C141.177 13.976 140.337 13.608 139.297 13.608C138.241 13.608 137.393 13.976 136.753 14.712C136.129 15.432 135.817 16.512 135.817 17.952C135.817 19.392 136.129 20.48 136.753 21.216C137.393 21.952 138.241 22.32 139.297 22.32ZM148.33 29.448L147.754 27.48C148.506 27.32 149.13 27.128 149.626 26.904C150.138 26.68 150.562 26.384 150.898 26.016C151.234 25.664 151.522 25.208 151.762 24.648L152.362 23.232L152.314 24.216L147.058 11.904H149.65L153.73 21.984H153.082L157.162 11.904H159.658L154.114 24.864C153.762 25.664 153.386 26.336 152.986 26.88C152.586 27.424 152.154 27.864 151.69 28.2C151.226 28.536 150.714 28.8 150.154 28.992C149.594 29.184 148.986 29.336 148.33 29.448Z" fill="#2F2F2F"/>
<path d="M9.66536 26.5837H19.332C21.9904 26.5837 24.1654 24.4087 24.1654 21.7503V8.45866C24.1654 6.04199 22.4737 4.10866 20.1779 3.74616C19.6945 2.90033 18.8487 2.41699 17.882 2.41699H11.1154C10.1487 2.41699 9.30287 2.90033 8.81953 3.74616C6.5237 4.10866 4.83203 6.04199 4.83203 8.45866V21.7503C4.83203 24.4087 7.00703 26.5837 9.66536 26.5837ZM10.8737 4.95449C10.8737 4.95449 10.9945 4.83366 11.1154 4.83366H18.0029L18.1237 4.95449V5.80033C18.1237 5.92116 18.0029 6.04199 17.882 6.04199H11.1154C10.9945 6.04199 10.8737 5.92116 10.8737 5.80033V4.95449ZM7.2487 8.45866C7.2487 7.49199 7.73203 6.76699 8.45703 6.28366V6.40449C8.45703 6.52533 8.57786 6.64616 8.57786 6.76699C8.57786 6.76699 8.57786 6.88783 8.6987 6.88783C8.6987 7.00866 8.81953 7.12949 8.81953 7.12949L8.94036 7.25033C8.94036 7.37116 9.0612 7.37116 9.18203 7.49199L9.30286 7.61283L9.54453 7.85449L9.66536 7.97533C9.7862 7.97533 9.7862 8.09616 9.90703 8.09616C9.90703 8.09616 10.0279 8.09616 10.0279 8.21699C10.1487 8.21699 10.2695 8.33783 10.3904 8.33783H10.5112C10.7529 8.45866 10.8737 8.45866 11.1154 8.45866H18.607C18.7279 8.45866 18.8487 8.45866 18.9695 8.33783C18.9695 8.33783 19.0904 8.33783 19.0904 8.21699C19.2112 8.21699 19.2112 8.09616 19.332 8.09616L19.4529 7.97533C19.5737 7.97533 19.5737 7.85449 19.6945 7.73366L19.8154 7.61283L20.057 7.37116L20.1779 7.25033C20.1779 7.12949 20.2987 7.12949 20.2987 7.00866C20.2987 7.00866 20.2987 6.88783 20.4195 6.88783C20.4195 6.76699 20.5404 6.64616 20.5404 6.52533V6.40449C21.2654 6.76699 21.7487 7.61282 21.7487 8.57949V21.8712C21.7487 23.2003 20.6612 24.2878 19.332 24.2878H9.66536C8.3362 24.2878 7.2487 23.2003 7.2487 21.8712V8.45866Z" fill="#2F2F2F"/>
<path d="M10.8763 19.333H13.293C14.018 19.333 14.5013 18.8497 14.5013 18.1247C14.5013 17.3997 14.018 16.9163 13.293 16.9163H10.8763C10.1513 16.9163 9.66797 17.3997 9.66797 18.1247C9.66797 18.8497 10.1513 19.333 10.8763 19.333ZM10.8763 14.4997H18.1263C18.8513 14.4997 19.3346 14.0163 19.3346 13.2913C19.3346 12.5663 18.8513 12.083 18.1263 12.083H10.8763C10.1513 12.083 9.66797 12.5663 9.66797 13.2913C9.66797 14.0163 10.1513 14.4997 10.8763 14.4997Z" fill="#2F2F2F"/>
</svg>
